<svg width="168" height="178" viewBox="0 0 168 178" fill="none" xmlns="http://www.w3.org/2000/svg">
<path d="M167.115 113.1C149.415 151.4 110.515 178 65.5155 178C62.4155 178 59.2155 177.9 56.2155 177.6L42.8155 125.7L129.915 76.5L167.115 113.1Z" fill="url(#paint0_linear)"/>
<path d="M38.8155 7.3L47.5155 22.3C50.4155 22.6 53.2155 24 55.0155 26.5C69.0155 22.6 83.0155 27.3 92.1155 39.3L106.715 53.7L126.016 42.5C124.816 39.9 123.215 36.7 122.016 34.6C103.316 2.1 69.6155 -7.6 38.8155 7.3ZM9.3155 98.9C17.6155 113.3 29.5155 123.3 43.4155 128.1L29.8155 75.3C24.3155 61.1 27.1155 46.9 37.3155 36.9C36.0155 34.1 36.0155 30.9 37.3155 28.2L28.6155 13.2C-0.0845013 32.9 -8.4845 68 9.3155 98.9Z" fill="white"/>
<path d="M135.315 81.8C131.015 97.2 119.715 110.4 102.615 120.2C81.9155 132.1 61.1155 134.3 43.4155 128.1L29.8155 75.3L92.2155 39.3L106.815 53.7L39.9155 92.3C52.3155 106.6 71.6155 109.1 90.7155 98.1C103.115 91 110.515 81.5 113.715 68.9C114.415 66.4 114.715 63.7 114.815 61.5L135.315 81.8Z" fill="#FFA300"/>
<defs>
<linearGradient id="paint0_linear" x1="88.3453" y1="103.539" x2="114.354" y2="150.145" gradientUnits="userSpaceOnUse">
<stop stop-color="#FFA300" stop-opacity="0.8"/>
<stop offset="1" stop-color="#FFA300" stop-opacity="0"/>
</linearGradient>
</defs>
</svg>